<svg width="41" height="42" viewBox="0 0 41 42" fill="none" xmlns="http://www.w3.org/2000/svg">
<g clip-path="url(#clip0_606_3488)">
<path d="M39.1009 18.3137H38.7668V16.3082C38.7668 15.9756 38.5038 15.7063 38.1789 15.7063C37.8543 15.7063 37.5909 15.9756 37.5909 16.3082V30.5292C37.5909 30.7292 37.4259 30.8982 37.2305 30.8982H33.5423C33.347 30.8982 33.1819 30.7292 33.1819 30.5292V11.5961C33.1819 11.3961 33.347 11.2271 33.5423 11.2271H37.2305C37.4259 11.2271 37.5909 11.3961 37.5909 11.5961V13.4991C37.5909 13.8314 37.8543 14.1011 38.1789 14.1011C38.5038 14.1011 38.7668 13.8314 38.7668 13.4991V11.5961C38.7668 10.7289 38.0778 10.0232 37.2305 10.0232H33.5423C33.1847 10.0232 32.8555 10.1502 32.594 10.3612C32.3328 10.1502 32.0036 10.0232 31.6456 10.0232H27.9578C27.1104 10.0232 26.4214 10.7289 26.4214 11.5961V18.3137H14.7158V11.5961C14.7158 10.7289 14.0265 10.0232 13.1795 10.0232H9.49131C9.13333 10.0232 8.80445 10.1502 8.54294 10.3612C8.28142 10.1502 7.95254 10.0232 7.59457 10.0232H3.90673C3.05941 10.0232 2.37041 10.7289 2.37041 11.5961V18.3137H2.03632C1.189 18.3137 0.5 19.0195 0.5 19.8866V22.2386C0.5 23.1061 1.189 23.8115 2.03632 23.8115H2.37041V30.5292C2.37041 31.3967 3.05941 32.1024 3.90673 32.1024H7.59487C7.95254 32.1024 8.28173 31.9754 8.54324 31.7644C8.80445 31.9754 9.13364 32.1024 9.49161 32.1024H13.1795C14.0268 32.1024 14.7158 31.3967 14.7158 30.5292V23.8115H19.197C19.5216 23.8115 19.785 23.5422 19.785 23.2096C19.785 22.8773 19.5216 22.6076 19.197 22.6076H14.7158V19.518H26.4214V22.6076H21.9405C21.6156 22.6076 21.3525 22.8773 21.3525 23.2096C21.3525 23.5422 21.6156 23.8115 21.9405 23.8115H26.4214V30.5292C26.4214 31.3967 27.1107 32.1024 27.9578 32.1024H31.6459C32.0039 32.1024 32.3328 31.9754 32.5943 31.7644C32.8558 31.9754 33.1847 32.1024 33.5426 32.1024H37.2308C38.0778 32.1024 38.7671 31.3967 38.7671 30.5292V23.8115H39.1009C39.9482 23.8115 40.6375 23.1061 40.6375 22.2386V19.8866C40.6372 19.0195 39.9482 18.3137 39.1009 18.3137ZM2.03632 22.6076C1.84095 22.6076 1.67589 22.4386 1.67589 22.2386V19.8866C1.67589 19.6866 1.84095 19.5176 2.03632 19.5176H2.37041V22.6076H2.03632ZM7.59457 30.8982H3.90673C3.71136 30.8982 3.5463 30.7292 3.5463 30.5292C3.5463 30.1799 3.5463 12.0783 3.5463 11.5961C3.5463 11.3961 3.71105 11.2271 3.90673 11.2271H7.59457C7.78994 11.2271 7.95499 11.3961 7.95499 11.5961V30.5292C7.95499 30.7292 7.78994 30.8982 7.59457 30.8982ZM13.5399 30.5292C13.5399 30.7292 13.3748 30.8982 13.1795 30.8982H9.49131C9.29594 30.8982 9.13088 30.7292 9.13088 30.5292V11.5961C9.13088 11.3961 9.29594 11.2271 9.49131 11.2271H13.1795C13.3748 11.2271 13.5399 11.3961 13.5399 11.5961V30.5292ZM31.6459 30.8982H27.9578C27.7624 30.8982 27.5973 30.7292 27.5973 30.5292C27.5973 30.1799 27.5973 12.0783 27.5973 11.5961C27.5973 11.3961 27.7624 11.2271 27.9578 11.2271H31.6459C31.8413 11.2271 32.0063 11.3961 32.0063 11.5961V30.5292C32.0063 30.7292 31.8413 30.8982 31.6459 30.8982ZM39.4613 22.2386C39.4613 22.4386 39.2963 22.6076 39.1009 22.6076H38.7668V19.5176H39.1009C39.2963 19.5176 39.4613 19.6866 39.4613 19.8866V22.2386Z" fill="white"/>
</g>
<defs>
<clipPath id="clip0_606_3488">
<rect width="40.1374" height="41.093" fill="white" transform="translate(0.5 0.55249)"/>
</clipPath>
</defs>
</svg>
