<svg width="32" height="31" viewBox="0 0 32 31" fill="none" xmlns="http://www.w3.org/2000/svg">
<g clip-path="url(#clip0_606_3525)">
<path d="M30.2891 7.71973H29.1992V6.62988C29.1992 5.96108 28.6571 5.41895 27.9883 5.41895C27.3195 5.41895 26.7773 5.96108 26.7773 6.62988V7.71973H25.6875C25.0187 7.71973 24.4766 8.26186 24.4766 8.93066C24.4766 9.59946 25.0187 10.1416 25.6875 10.1416H26.7773V11.2314C26.7773 11.9002 27.3195 12.4424 27.9883 12.4424C28.6571 12.4424 29.1992 11.9002 29.1992 11.2314V10.1416H30.2891C30.9579 10.1416 31.5 9.59946 31.5 8.93066C31.5 8.26186 30.9579 7.71973 30.2891 7.71973Z" fill="black" fill-opacity="0.2"/>
<path d="M19.597 15.0902C21.4404 13.6661 22.6299 11.4349 22.6299 8.93066C22.6299 4.64061 19.1397 1.15039 14.8496 1.15039C10.5596 1.15039 7.06934 4.64061 7.06934 8.93066C7.06934 11.4348 8.25884 13.6661 10.1022 15.0902C4.63493 17.0011 0.5 22.2466 0.5 28.6387C0.5 29.3075 1.04214 29.8496 1.71094 29.8496H27.9883C28.6571 29.8496 29.1992 29.3075 29.1992 28.6387C29.1992 22.245 25.0612 17 19.597 15.0902ZM9.49121 8.93066C9.49121 5.97604 11.895 3.57227 14.8496 3.57227C17.8042 3.57227 20.208 5.97604 20.208 8.93066C20.208 11.8853 17.8042 14.2891 14.8496 14.2891C11.895 14.2891 9.49121 11.8853 9.49121 8.93066ZM2.98291 27.4277C3.59158 21.4172 8.68128 16.7109 14.8496 16.7109C21.0179 16.7109 26.1076 21.4172 26.7163 27.4277H2.98291Z" fill="black" fill-opacity="0.2"/>
</g>
<defs>
<clipPath id="clip0_606_3525">
<rect width="31" height="31" fill="white" transform="translate(0.5)"/>
</clipPath>
</defs>
</svg>
