<svg width="32" height="31" viewBox="0 0 32 31" fill="none" xmlns="http://www.w3.org/2000/svg">
<g clip-path="url(#clip0_606_3535)">
<path d="M16.6055 29.7891C16.6055 30.458 16.0634 31.0001 15.3945 31.0001H1.71094C1.04208 31.0001 0.5 30.458 0.5 29.7891V13.1186C0.5 12.7591 0.659645 12.4183 0.935654 12.1884L15.2247 0.280798C15.6739 -0.0935993 16.3261 -0.0935993 16.7753 0.280798L31.0643 12.1884C31.578 12.6165 31.6473 13.38 31.2193 13.8939C30.7912 14.4076 30.0275 14.4769 29.5138 14.0488L16 2.78734L2.92188 13.6858V28.5782H15.3945C16.0634 28.5782 16.6055 29.1203 16.6055 29.7891ZM29.5831 26.5132C28.2544 28.1151 26.2703 29.5817 23.6857 30.8726C23.3449 31.0426 22.9442 31.0426 22.6034 30.8726C20.0188 29.5817 18.0347 28.1151 16.7062 26.5132C12.7622 21.7586 15.5085 16.5111 19.5723 16.5111C21.1917 16.5111 22.383 17.1741 23.1445 17.7963C23.9061 17.1741 25.0974 16.5111 26.7168 16.5111C30.7883 16.5111 33.5172 21.7702 29.5831 26.5132ZM26.7168 18.933C25.0416 18.933 24.1622 20.1889 24.1537 20.2014C23.6509 20.9599 22.5906 20.9136 22.1384 20.2064C22.0641 20.1021 21.1947 18.933 19.5723 18.933C16.9621 18.933 14.7202 23.9631 23.1445 28.4275C31.5688 23.9631 29.3274 18.933 26.7168 18.933Z" fill="black" fill-opacity="0.2"/>
</g>
<defs>
<clipPath id="clip0_606_3535">
<rect width="31" height="31" fill="white" transform="translate(0.5)"/>
</clipPath>
</defs>
</svg>
