<svg width="41" height="42" viewBox="0 0 41 42" fill="none" xmlns="http://www.w3.org/2000/svg">
<g clip-path="url(#clip0_606_3494)">
<path d="M21.3697 7.5798C23.2046 7.5798 24.6975 6.05142 24.6975 4.17283C24.6975 2.29425 23.2046 0.765869 21.3697 0.765869C19.5348 0.765869 18.042 2.29425 18.042 4.17283C18.042 6.05142 19.5348 7.5798 21.3697 7.5798ZM21.3697 1.96977C22.5563 1.96977 23.5216 2.95796 23.5216 4.17283C23.5216 5.3877 22.5563 6.3759 21.3697 6.3759C20.1834 6.3759 19.2179 5.3877 19.2179 4.17283C19.2179 2.95796 20.1834 1.96977 21.3697 1.96977Z" fill="white"/>
<path d="M3.25724 41.8589H19.259C19.5836 41.8589 19.8469 41.5893 19.8469 41.257C19.8469 40.9247 19.5836 40.6551 19.259 40.6551H3.25724C3.0337 40.6551 2.8518 40.4688 2.8518 40.24V40.0863C2.8518 39.8572 3.0337 39.6709 3.25724 39.6709H38.0045C38.228 39.6709 38.4099 39.8572 38.4099 40.0863V40.24C38.4099 40.4688 38.228 40.6551 38.0045 40.6551H22.0027C21.6778 40.6551 21.4148 40.9247 21.4148 41.257C21.4148 41.5893 21.6778 41.8589 22.0027 41.8589H38.0045C38.8763 41.8589 39.5858 41.1325 39.5858 40.24V40.0863C39.5858 39.1934 38.8763 38.4673 38.0045 38.4673H24.9091C25.0126 38.2259 25.0711 37.9604 25.0732 37.6814L25.1388 29.0519C25.1412 28.7195 24.88 28.448 24.5554 28.4452C24.5536 28.4452 24.5524 28.4452 24.5505 28.4452C24.2281 28.4452 23.9653 28.7117 23.9629 29.0425L23.8973 37.6723C23.894 38.1106 23.543 38.4673 23.1088 38.467C22.6764 38.4639 22.3289 38.1027 22.3322 37.6597L22.4103 27.3705C22.4106 27.3197 22.4048 27.2692 22.3929 27.22L22.0334 25.7471L23.5666 25.4192L23.8021 26.3842C23.8808 26.7065 24.1999 26.9027 24.515 26.8221C24.8301 26.7416 25.0215 26.4149 24.9428 26.0923L23.2665 19.2204V18.0114L26.0008 19.6737C26.9467 20.249 28.1441 19.9057 28.6848 18.9736C28.9803 18.4638 29.029 17.8729 28.8674 17.3474C28.8637 17.1521 28.8346 16.9602 28.7767 16.7759L27.5726 12.9334C27.5726 12.9334 27.5723 12.9334 27.5723 12.9331L26.7682 10.367C26.36 8.99569 25.1881 8.0332 23.834 7.85638C22.2523 7.65009 20.3638 7.65009 18.7825 7.85638C17.3996 8.03696 16.2485 9.02234 15.8482 10.3673L15.7974 10.5291C15.5074 11.4549 13.9203 16.5191 13.8397 16.7756C13.7782 16.9721 13.7488 17.1762 13.7488 17.3835C13.6006 17.8992 13.6532 18.4736 13.9411 18.9714C14.4797 19.9029 15.6758 20.2499 16.6242 19.6749L19.3499 18.0224V18.4322L15.7864 21.0271C15.7861 21.0275 15.7858 21.0278 15.7855 21.0281L12.3705 23.5149C11.0944 24.4441 11.3207 26.3309 12.6323 26.9751L19.3766 30.2896C19.9755 30.584 20.6584 30.5436 21.2127 30.2109L21.1563 37.65C21.1542 37.9356 21.2105 38.2125 21.3189 38.4667H3.25724C2.38542 38.4667 1.6759 39.1931 1.6759 40.0857V40.2396C1.6759 41.1325 2.38542 41.8589 3.25724 41.8589ZM23.2818 24.2504L21.7486 24.5783L21.036 21.6567C20.9355 21.2447 20.4603 21.0679 20.1247 21.3121L17.9211 22.9167L16.9657 21.6463L19.8962 19.5119C20.5301 19.9929 21.3502 20.2032 22.2532 20.0336C22.5506 21.2526 22.9845 23.0314 23.2818 24.2504ZM15.9839 13.8756L17.4731 14.3678L17.4222 14.5305L15.599 15.6359L15.3929 15.761L15.9839 13.8756ZM27.2211 15.7516L25.1902 14.517L25.1434 14.3678L26.6328 13.8752L27.2211 15.7516ZM27.6737 18.3591C27.4483 18.7479 26.9666 18.8611 26.6013 18.6388L22.2903 16.0178C22.0542 15.8742 21.9072 15.6102 21.9072 15.329V14.2289C21.9072 14.2016 21.9087 14.1743 21.9115 14.1477C21.9513 13.7473 22.2823 13.4313 22.6835 13.4282C22.6862 13.4282 22.689 13.4279 22.6917 13.4279C23.1223 13.4288 23.4723 13.7878 23.4723 14.2289V14.5302C23.4723 14.7427 23.5819 14.9393 23.7602 15.0478L27.4002 17.2609C27.7695 17.4857 27.8942 17.9791 27.6737 18.3591ZM23.6854 9.05087C24.6099 9.17126 25.3795 9.82651 25.6443 10.7213C25.6453 10.7244 25.6462 10.7275 25.6471 10.7307L26.2736 12.729L24.7842 13.2216L24.1527 11.2075L24.1478 11.1909C24.0633 10.8978 23.8039 10.6818 23.4876 10.6404L22.753 10.5448C22.4005 10.499 22.0909 10.7802 22.0909 11.1417V12.3199C21.7976 12.4165 21.5345 12.5823 21.3195 12.798C21.1009 12.5792 20.829 12.4086 20.5255 12.3124V11.1417C20.5255 10.7802 20.2162 10.499 19.8635 10.5445L19.1291 10.6404C18.814 10.6815 18.554 10.8962 18.4686 11.1909L17.8323 13.2216L16.3431 12.729L16.9693 10.7307C16.9703 10.7275 16.9712 10.7244 16.9721 10.7213C17.2364 9.82933 18.0035 9.17189 18.931 9.05087C20.4193 8.85681 22.1969 8.85681 23.6854 9.05087ZM16.0252 18.6391C15.6608 18.8601 15.1791 18.7488 14.9528 18.3582C14.7345 17.9804 14.8546 17.4901 15.2236 17.2631C15.2248 17.2625 15.2263 17.2612 15.2275 17.2603C15.6045 17.032 18.438 15.314 18.878 15.0472C19.0566 14.9387 19.1662 14.7418 19.1662 14.5292V14.2289C19.1662 13.8216 19.4693 13.442 19.9541 13.4279C20.3816 13.43 20.7313 13.7903 20.7313 14.2289V15.329C20.7313 15.6105 20.5843 15.8748 20.3476 16.0184L16.0252 18.6391ZM21.3195 16.7605C21.4188 16.8605 21.5556 16.9712 21.6901 17.053L22.0909 17.2969V18.8382C21.3554 18.9909 20.7656 18.7404 20.5258 18.4949V17.3098L20.9469 17.0543C21.0844 16.9709 21.2164 16.8643 21.3195 16.7605ZM20.9297 28.829C20.7494 29.2143 20.287 29.4017 19.8858 29.2045L13.1412 25.8901C12.6347 25.6411 12.5055 24.894 13.0521 24.4962L16.0066 22.3445L16.962 23.6152L15.8271 24.4416C15.463 24.7069 15.5099 25.2768 15.9135 25.475L20.5632 27.7602C20.953 27.9517 21.1171 28.4299 20.9297 28.829ZM17.3209 24.8313C17.8329 24.4586 17.8834 24.4219 20.1038 22.8048L21.0446 26.6613L17.3209 24.8313Z" fill="white"/>
</g>
<defs>
<clipPath id="clip0_606_3494">
<rect width="40.1374" height="41.093" fill="white" transform="translate(0.5 0.765869)"/>
</clipPath>
</defs>
</svg>
