<svg width="45" height="45" viewBox="0 0 45 45" fill="none" xmlns="http://www.w3.org/2000/svg">
<g clip-path="url(#clip0_606_3490)">
<path d="M41.2367 23.4341C41.2361 23.4307 41.2352 23.4272 41.2346 23.4241C41.0383 22.6031 40.7538 21.7947 40.3796 21.0118C40.3743 20.9997 40.3688 20.9876 40.3625 20.9758C40.2315 20.7044 40.0902 20.4358 39.9374 20.1712C39.1582 18.8212 38.148 17.6567 36.9621 16.7176C36.9447 16.7017 36.9267 16.6868 36.9071 16.6729C36.904 16.6707 36.9009 16.6691 36.8981 16.6673C35.8956 15.8844 34.769 15.2617 33.5498 14.8236C33.2697 14.1556 32.9467 13.5031 32.5874 12.8805C30.4434 9.16728 27.0094 6.42174 22.9179 5.14912C18.8501 3.88426 14.4944 4.18146 10.6529 5.98635C10.3548 6.12641 10.2268 6.48136 10.3666 6.77949C10.5066 7.07761 10.8619 7.20556 11.1597 7.06581C13.4059 6.01057 15.8002 5.5401 18.1591 5.59506C17.0048 6.85557 14.5853 8.63407 11.6578 10.3368C8.68093 12.0684 5.81614 13.3479 4.02832 13.7755C5.16244 11.6902 6.77541 9.83806 8.82564 8.41265C9.09613 8.22446 9.16289 7.85305 8.97501 7.58256C8.78682 7.31207 8.41541 7.24562 8.14492 7.4335C4.65904 9.85731 2.22187 13.4811 1.28216 17.6377C0.525361 20.987 0.799573 24.443 2.04083 27.5951C2.04859 27.6202 2.05853 27.6445 2.0694 27.6681C2.37156 28.4252 2.729 29.1646 3.14233 29.8804C3.35288 30.2453 3.57617 30.5993 3.8097 30.9431C3.8215 30.9623 3.83423 30.981 3.8479 30.9987C6.62884 35.0535 10.9669 37.6024 15.6316 38.2294C15.6623 38.236 15.6934 38.24 15.725 38.2419C16.4424 38.3341 17.1672 38.3813 17.8951 38.3813C19.9913 38.3813 22.113 37.9903 24.153 37.1754C25.316 37.735 26.5619 38.1071 27.841 38.2766C27.8454 38.2776 27.8497 38.2782 27.8544 38.2788C28.3779 38.3474 28.9071 38.3828 29.4381 38.3828C31.271 38.3828 33.1281 37.9667 34.868 37.0919C35.1621 36.9438 35.2808 36.5854 35.1329 36.2913C34.9848 35.9969 34.6264 35.8786 34.3324 36.0264C33.2603 36.5655 32.139 36.9105 31.0089 37.0758C32.1228 36.5485 33.3417 35.9066 34.5889 35.1867C35.8376 34.4656 37.0049 33.7296 38.0192 33.0278C37.5844 33.5775 37.0912 34.092 36.5413 34.5613C36.2907 34.7752 36.2612 35.1516 36.4748 35.4019C36.6885 35.6525 37.0649 35.682 37.3155 35.4684C40.8479 32.4536 42.2696 27.773 41.2367 23.4341ZM23.739 35.5969H23.7387C23.5434 35.4783 23.3514 35.3528 23.1629 35.2218C23.1275 35.197 23.0921 35.1724 23.0567 35.1473C23.0161 35.1181 22.9757 35.0886 22.9353 35.0591C22.9328 35.0572 22.9307 35.0553 22.9282 35.0538C24.6582 34.5498 27.2351 33.27 29.3624 32.1263C32.9734 30.185 36.7323 27.8435 38.9384 26.161C39.5337 25.707 39.9759 25.3328 40.3051 25.0194C40.3591 25.5014 40.3815 25.9849 40.3715 26.4666C39.5797 27.4305 36.7764 29.5391 32.6902 31.8983C28.6096 34.2541 25.3849 35.6271 24.1505 35.8339C24.0117 35.7578 23.8744 35.6792 23.739 35.5969ZM15.7086 37.0357C14.4487 36.8596 13.2152 36.5326 12.0358 36.0646C13.8059 35.4926 16.3309 34.3734 19.2454 32.857C19.2643 32.8862 19.2839 32.9151 19.3032 32.9443C19.3261 32.9793 19.3491 33.0147 19.3727 33.0492C19.382 33.0632 19.3907 33.0772 19.4 33.0908C19.4594 33.1778 19.5199 33.2638 19.5814 33.3489C19.591 33.3622 19.601 33.3753 19.6106 33.3883C19.6724 33.4737 19.7354 33.5579 19.7997 33.6411C19.8239 33.6728 19.8485 33.7042 19.873 33.7355C19.9258 33.8029 19.9792 33.8694 20.0333 33.9355C20.0587 33.9663 20.0836 33.9976 20.1093 34.0284C20.1798 34.1128 20.2519 34.1964 20.3249 34.279C20.3606 34.3197 20.3975 34.3597 20.4339 34.3998C20.4758 34.4457 20.5177 34.4917 20.5603 34.5374C20.6022 34.5821 20.6444 34.6268 20.6873 34.6712C20.7258 34.7109 20.7646 34.7504 20.8037 34.7898C20.813 34.7991 20.8224 34.8088 20.8317 34.8181C18.8662 35.8084 17.0753 36.5842 15.7086 37.0357ZM8.06418 33.7774C10.3364 33.2001 14.2167 31.3679 17.7253 29.495C17.7507 29.5857 17.7778 29.6761 17.8054 29.7661C17.8088 29.7779 17.8125 29.7897 17.8163 29.8018C17.8402 29.8792 17.8647 29.9565 17.8902 30.0338C17.9082 30.0882 17.9268 30.1422 17.9455 30.1962C17.9619 30.2441 17.9781 30.2922 17.9951 30.34C18.0349 30.4509 18.0768 30.5614 18.12 30.6717C18.1215 30.6754 18.1228 30.6791 18.1243 30.6829C18.1256 30.6872 18.1277 30.6912 18.1293 30.6953C18.1336 30.7077 18.1383 30.7198 18.1436 30.7316C18.1445 30.7335 18.1451 30.7353 18.1458 30.7372C18.1538 30.7577 18.1628 30.7779 18.1712 30.7984C18.1998 30.8686 18.2287 30.9384 18.2585 31.0083C18.2706 31.0359 18.2824 31.0636 18.2945 31.0912C18.3265 31.1648 18.3594 31.2378 18.3929 31.3108C18.4044 31.3359 18.4162 31.3611 18.428 31.3859C18.4628 31.4601 18.4982 31.5344 18.5349 31.608C18.547 31.6325 18.5588 31.6567 18.5709 31.6809C18.5951 31.7291 18.6196 31.7772 18.6445 31.8254C14.9061 33.7675 11.792 35.06 10.3377 35.2721C9.54207 34.8417 8.78092 34.3423 8.06418 33.7774ZM4.1749 29.2842C3.90659 28.8193 3.6656 28.3451 3.44977 27.864C7.05366 26.9874 14.3788 22.9745 18.7861 20.3969C18.6873 20.5774 18.5939 20.7603 18.5044 20.9447C18.0175 21.9397 17.6737 22.9853 17.4756 24.0552C10.8979 27.7535 6.34779 29.6702 4.6137 29.9956C4.46247 29.763 4.31496 29.527 4.1749 29.2842ZM22.9844 17.3874C22.9968 17.3781 23.0095 17.3688 23.0223 17.3598C23.3182 17.1468 23.6275 16.9465 23.9499 16.7601C24.5713 16.4015 25.2178 16.108 25.8815 15.8794C25.8883 15.8776 25.8948 15.8748 25.9013 15.8723C26.397 15.7027 26.9019 15.5704 27.4131 15.4745C27.4398 15.4695 27.4662 15.4642 27.4929 15.4596C27.5407 15.4509 27.5888 15.4431 27.6367 15.4353C27.7155 15.4223 27.7944 15.4099 27.8736 15.3987C27.8873 15.3965 27.9009 15.3947 27.9149 15.3928C28.3475 15.3335 28.7857 15.3009 29.2282 15.2937C28.3581 16.1356 26.8084 17.2437 24.9669 18.3153C23.09 19.4075 21.2838 20.2414 20.0426 20.6115C20.2283 20.3038 20.4298 20.0029 20.6478 19.7103C21.2801 18.86 22.0161 18.1206 22.83 17.5017C22.881 17.4632 22.9325 17.425 22.9844 17.3874ZM32.4815 15.7294C32.5014 15.7353 32.5209 15.7409 32.5408 15.7468C32.5992 15.7642 32.6573 15.7822 32.715 15.8002C32.7793 15.8207 32.8436 15.8415 32.9082 15.8636C32.9101 15.8642 32.9122 15.8642 32.9138 15.8648C32.9464 15.876 32.979 15.8866 33.0116 15.8977C31.8716 17.0173 29.3434 18.7768 26.2867 20.5525C23.1878 22.3524 20.3053 23.7248 18.6734 24.1993C18.8181 23.4403 19.0426 22.6978 19.3426 21.9848C20.931 21.7807 23.5446 20.5227 25.5666 19.3461C26.5526 18.7722 29.6534 16.8937 30.7415 15.3723C31.0937 15.4164 31.6626 15.5061 32.3026 15.6791C32.3626 15.6956 32.4222 15.7123 32.4815 15.7294ZM35.6913 17.2586C33.0796 19.9181 22.253 26.1809 18.5187 27.1898C18.4697 26.6156 18.4656 26.0411 18.5066 25.4713C20.4894 25.0368 24.0539 23.2285 26.8858 21.5835C29.6794 19.9606 32.9191 17.8225 34.1914 16.3834C34.7159 16.6359 35.2174 16.9281 35.6913 17.2586ZM37.6928 19.0625C36.427 20.3516 32.9703 22.7099 28.7559 25.1415C24.548 27.5687 20.7987 29.3689 19.073 29.8074C19.0727 29.8068 19.0727 29.8065 19.0724 29.8059C19.0575 29.7627 19.0423 29.7198 19.028 29.6764C19.0026 29.5997 18.978 29.523 18.9544 29.4459C18.9526 29.4404 18.951 29.4345 18.9491 29.4289C18.8432 29.0807 18.7557 28.7295 18.6858 28.3767C20.8578 27.8252 24.8899 25.7486 28.1509 23.8602C31.3884 21.9851 35.1333 19.5603 36.6326 17.9952C37.009 18.325 37.3633 18.6812 37.6928 19.0625ZM38.9048 20.7674C38.9834 20.9034 39.0586 21.0404 39.1306 21.1786C38.0154 22.4167 34.4796 24.8464 30.0484 27.4016C25.6939 29.9127 21.7736 31.7769 20.1826 32.1095C20.1426 32.0462 20.1025 31.9828 20.0637 31.9188C20.0528 31.9005 20.0419 31.8819 20.0311 31.8636C19.992 31.798 19.9531 31.7322 19.9152 31.6657C19.9019 31.6424 19.8888 31.6188 19.8758 31.5955C19.8398 31.5316 19.8044 31.4673 19.7696 31.4024C19.7578 31.3803 19.7463 31.3583 19.7348 31.3362C19.6997 31.2698 19.6653 31.203 19.6317 31.1356C19.6208 31.1142 19.6103 31.0928 19.5997 31.0713C19.5749 31.0207 19.5507 30.9695 19.5264 30.9186C21.7829 30.2916 25.9429 28.1407 29.3515 26.174C32.7675 24.2033 36.7347 21.6658 38.4272 20.0128C38.5955 20.2569 38.7552 20.5081 38.9048 20.7674ZM40.0324 23.5322C39.9213 23.7216 39.4315 24.3632 37.3627 25.8405C35.7941 26.9606 33.6929 28.2944 31.4458 29.5963C29.1894 30.9033 26.974 32.0691 25.2073 32.879C22.962 33.9082 22.0894 34.07 21.7866 34.0846C21.6785 33.9793 21.5723 33.8728 21.4686 33.7632C21.4587 33.7529 21.449 33.7424 21.4391 33.7318C21.373 33.6613 21.3077 33.5902 21.2438 33.5178C21.2344 33.5076 21.2254 33.4976 21.2164 33.4874C21.118 33.3759 21.023 33.2623 20.9292 33.1467C23.1912 32.4912 27.255 30.3894 30.6443 28.4348C34.0463 26.4728 37.9316 23.9896 39.6548 22.3428C39.8045 22.7347 39.93 23.1316 40.0324 23.5322ZM32.0408 14.3866C30.8095 14.1137 29.5624 14.0345 28.3351 14.1444C29.2366 13.4559 30.0866 12.7532 30.6884 12.1404C30.9968 12.5674 31.2865 13.0125 31.5545 13.4767C31.7256 13.7733 31.888 14.0773 32.0408 14.3866ZM29.9456 11.1927C29.1568 12.0274 27.5662 13.2929 25.4601 14.7568C24.2483 15.1748 23.1092 15.7859 22.0826 16.5713C21.5282 16.9918 21.0186 17.4536 20.5553 17.9501C16.4384 20.4823 6.75896 25.9315 2.99979 26.7451C2.70353 25.9181 2.48056 25.075 2.3287 24.2241C5.31585 23.5449 11.1936 20.523 15.93 17.7797C20.6342 15.0552 26.0914 11.5172 28.0758 9.33156C28.745 9.89396 29.3714 10.515 29.9456 11.1927ZM2.13958 20.0758C4.88139 19.5364 10.0436 16.9201 14.1319 14.5453C18.1687 12.2004 22.8589 9.10175 24.5529 7.09003C25.4545 7.50927 26.3187 8.01298 27.1317 8.59711C25.5125 10.3321 20.9484 13.495 15.3325 16.7477C9.68492 20.0187 4.5724 22.4512 2.16256 23.0378C2.06256 22.0503 2.05573 21.0581 2.13958 20.0758ZM12.2572 11.3678C15.1263 9.69893 18.4439 7.39499 19.6022 5.69413C20.8978 5.84257 22.1704 6.14908 23.3896 6.60372C21.8763 8.20334 18.1156 10.852 13.5329 13.514C8.88775 16.2123 4.57302 18.238 2.29827 18.8163C2.50944 17.5396 2.87433 16.29 3.38611 15.0987C5.58199 14.8701 9.34953 13.059 12.2572 11.3678ZM5.35529 31.0443C7.6937 30.4242 12.182 28.3541 17.2961 25.5206C17.2411 26.4408 17.2924 27.3687 17.4523 28.2885C11.2519 31.6254 7.84897 32.7794 6.91423 32.7766C6.35773 32.2427 5.83539 31.6657 5.35529 31.0443ZM18.6392 37.1708C19.6146 36.745 20.6748 36.2401 21.7798 35.6736C21.7919 35.6836 21.804 35.6935 21.8161 35.7031C21.9077 35.7767 22.0003 35.8485 22.0937 35.9196C22.1145 35.9351 22.1353 35.9503 22.1561 35.9659C22.2409 36.0292 22.3263 36.0913 22.4123 36.1522C22.4254 36.1615 22.4381 36.1705 22.4512 36.1798C22.5611 36.2568 22.672 36.3329 22.7844 36.4065C21.4208 36.8546 20.0277 37.1049 18.6392 37.1708ZM33.9923 34.1541C31.698 35.4786 29.4304 36.5643 27.8863 37.0792C27.1886 36.9795 26.5022 36.8133 25.8377 36.5826C27.6851 35.9187 30.3987 34.5982 33.2861 32.9312C36.1776 31.2617 38.6803 29.5699 40.1787 28.3016C40.047 28.9904 39.8495 29.6667 39.5877 30.3204C38.371 31.4011 36.2925 32.8259 33.9923 34.1541Z" fill="white"/>
</g>
<defs>
<clipPath id="clip0_606_3490">
<rect width="43.96" height="43.96" fill="white" transform="translate(0.862305 0.685547)"/>
</clipPath>
</defs>
</svg>
