<svg width="32" height="31" viewBox="0 0 32 31" fill="none" xmlns="http://www.w3.org/2000/svg">
<g clip-path="url(#clip0_606_3531)">
<path d="M26.9601 18.8195C25.2433 17.1027 23.1943 15.839 20.9584 15.0867C23.0203 13.5627 24.3601 11.1151 24.3601 8.36013C24.3602 3.75033 20.6099 0 16 0C11.3901 0 7.63981 3.75033 7.63981 8.36013C7.63981 11.1151 8.97959 13.5628 11.0415 15.0867C8.80564 15.8389 6.75673 17.1027 5.0398 18.8195C2.1123 21.7471 0.5 25.6395 0.5 29.7797C0.5 30.4537 1.04631 31 1.72026 31H30.2797C30.9536 31 31.4999 30.4537 31.4999 29.7797C31.5 25.6395 29.8877 21.7471 26.9601 18.8195ZM10.0805 8.36013C10.0805 5.09605 12.7359 2.44058 16.0001 2.44058C19.2642 2.44058 21.9197 5.09605 21.9197 8.36013C21.9197 11.6242 19.2642 14.2797 16.0001 14.2797C12.7359 14.2797 10.0805 11.6242 10.0805 8.36013ZM2.99713 28.5594C3.61435 21.9284 9.21045 16.7203 16 16.7203C22.7895 16.7203 28.3857 21.9283 29.0029 28.5594H2.99713Z" fill="black"/>
</g>
<defs>
<clipPath id="clip0_606_3531">
<rect width="31" height="31" fill="white" transform="translate(0.5)"/>
</clipPath>
</defs>
</svg>
