<svg width="41" height="42" viewBox="0 0 41 42" fill="none" xmlns="http://www.w3.org/2000/svg">
<g clip-path="url(#clip0_606_3492)">
<path d="M39.8087 26.8182L35.1743 14.4224V14.4221C34.8451 13.542 33.8241 13.1921 33.0469 13.6649C31.5519 14.5735 29.8426 15.0541 28.1038 15.0541H15.1741L15.2654 14.7136C15.432 14.2318 15.5098 13.7373 15.5021 13.2483C15.4889 12.4334 15.2369 11.6346 14.7574 10.9364C12.8425 8.14768 8.63502 8.765 7.57733 12.0083L5.08374 17.6046V17.6049L1.41609 25.8362C1.41456 25.8397 1.41334 25.8434 1.41211 25.8469C-0.322035 29.4526 2.26005 33.687 6.18584 33.687H21.2156C21.5405 33.687 21.8036 33.4177 21.8036 33.0853C21.8036 32.7527 21.5405 32.4834 21.2156 32.4834H9.52859C10.4711 31.7052 11.1516 30.6007 11.4024 29.2965H32.692C34.8441 29.2965 36.9902 28.8021 38.9411 27.8653L39.8038 30.1721C39.8558 30.311 39.8028 30.4668 39.6782 30.5424C37.5891 31.8121 35.2009 32.4834 32.7713 32.4834H23.9588C23.6342 32.4834 23.3711 32.7527 23.3711 33.0853C23.3711 33.4177 23.6342 33.687 23.9588 33.687H32.7713C35.4119 33.687 38.0077 32.9577 40.2781 31.5776C40.8967 31.2017 41.1588 30.4299 40.9019 29.742L39.8087 26.8182ZM13.4409 16.9697L13.0639 18.3749C11.8761 16.2379 9.25329 15.2877 7.01326 16.1743L7.6646 14.7121C9.67864 12.4676 13.3977 13.8913 13.4409 16.9697ZM4.33962 22.1747C6.58669 19.2248 11.2526 20.7256 11.4293 24.468L11.023 25.982C9.76254 23.1557 6.46726 22.011 3.80832 23.3673L4.33962 22.1747ZM12.5063 20.4538L12.0307 22.2258C10.7844 19.7788 7.81189 18.7461 5.3719 19.8578L6.11143 18.1984C8.30522 15.9037 12.1609 17.2462 12.5063 20.4538ZM5.39027 24.0815C6.85923 23.7874 8.43292 24.3298 9.43151 25.6143L9.22267 26.2598C8.34074 24.8486 6.65406 24.2232 5.1012 24.7239L5.39027 24.0815ZM4.03799 27.0881C4.46027 26.267 5.28217 25.7572 6.18554 25.7572C7.52404 25.7572 8.61328 26.8724 8.61328 28.2428C8.61328 28.9225 9.55033 29.077 9.75917 28.4318L10.1812 27.1267C10.2779 27.4878 10.3239 27.8415 10.3269 28.2064C10.3291 29.6062 9.18745 30.728 7.81557 30.728H6.18554C4.53836 30.728 3.16984 29.0184 4.03799 27.0881ZM13.7683 20.2942H31.1468C32.7196 20.2942 34.3046 19.9788 35.7683 19.3784L36.9335 22.4957C35.3537 23.2181 33.6229 23.5977 31.8952 23.5977H12.882L13.7683 20.2942ZM28.1035 16.2577C30.0536 16.2577 31.9705 15.7188 33.6471 14.6998C33.8067 14.603 34.0106 14.6773 34.0761 14.8525L35.3482 18.2548C34.0183 18.8028 32.5769 19.0906 31.1468 19.0906H14.0913C14.5504 17.3791 14.5721 17.2986 14.8514 16.2577H28.1035ZM11.4324 10.3696C13.4299 10.3696 14.8299 12.3974 14.1513 14.3286C14.1391 14.3628 14.0506 14.697 14.0411 14.7321C13.007 12.863 10.6662 11.9052 8.56704 12.6868C8.58848 12.6388 8.66901 12.4635 8.68463 12.4137C9.07201 11.191 10.1763 10.3696 11.4324 10.3696ZM2.04355 28.2428C2.04355 26.8254 2.72704 25.5694 3.7731 24.7988L2.8385 26.8774C2.8333 26.8887 2.82871 26.9 2.82411 26.9119C1.91279 29.3238 3.65888 31.9319 6.18554 31.9319H7.81526C7.97052 31.9319 8.12455 31.9206 8.27766 31.9006C7.61683 32.2981 6.89598 32.4834 6.18554 32.4834C3.90172 32.4834 2.04355 30.581 2.04355 28.2428ZM32.692 28.0929H11.6761L12.5593 24.8013H31.8952C33.7662 24.8013 35.6397 24.3937 37.354 23.62L38.5204 26.7395C36.7045 27.6261 34.7005 28.0929 32.692 28.0929Z" fill="white"/>
</g>
<defs>
<clipPath id="clip0_606_3492">
<rect width="40.1374" height="41.093" fill="white" transform="translate(0.862305 0.819336)"/>
</clipPath>
</defs>
</svg>
